<svg width="51" height="41" viewBox="0 0 51 41" fill="none" xmlns="http://www.w3.org/2000/svg">
<path d="M28.04 30.0955H39.4409L44.9488 20.2489L39.1328 10.0449L28.04 30.0955Z" fill="#1C9E74"/>
<path d="M33.779 40.1409H22.3396L16.9473 30.0957H28.5408L33.779 40.1409Z" fill="#74BEFD"/>
<path d="M33.779 20.0508H22.3396L16.9473 30.0959H28.5408L33.779 20.0508Z" fill="#0F92CF"/>
<path d="M33.7405 40.1411H45.1414L50.6493 30.2548L44.7947 20.0508L33.7405 40.1411Z" fill="#7DC8B0"/>
<path d="M39.287 30.0957L33.7407 40.1409L28.3098 30.0957H39.287Z" fill="#44ADBE"/>
<path d="M39.287 30.0959L33.7407 20.0508L28.3098 30.0959H39.287Z" fill="#1898A4"/>
<path d="M33.7405 20.0508L39.2869 30.0959L44.7947 20.0508H33.7405Z" fill="#1C9E74"/>
<path d="M5.39233 30.0955H16.8318L22.3396 20.2489L16.4851 10.0449L5.39233 30.0955Z" fill="#0189FF"/>
<path d="M10.9387 20.0508L5.39232 30.0959L0 20.0508H10.9387Z" fill="#0189FF"/>
<path d="M10.9387 20.0504L5.39232 10.0449L0 20.0504H10.9387Z" fill="#0189FF"/>
<path d="M33.5864 20.0508L28.04 30.0959L22.6477 20.0508H33.5864Z" fill="#0F92CF"/>
<path d="M22.3396 20.0504L28.1556 10.0449L33.5864 20.0504H22.3396Z" fill="#1C9E74"/>
<path d="M28.04 10.0449L33.5864 20.0504L39.1328 10.0449H28.04Z" fill="#1C9E74"/>
<path d="M5.39233 10.0449L10.9387 20.0504H22.3396L28.0401 10.0449H5.39233Z" fill="#4DA9A5"/>
<path d="M16.7932 10.0449L22.3396 20.0504L27.8475 10.0449H16.7932Z" fill="#52AF30"/>
<path d="M28.0401 10.0452L22.4937 0H11.1313L5.39233 10.0452H28.0401Z" fill="#97D07E"/>
</svg>
