<svg id="Layer_1" data-name="Layer 1" xmlns="http://www.w3.org/2000/svg" viewBox="0 0 50.32 42.28"><path d="M33.78,43H22.34L17,32.42H28.54Z" transform="translate(-0.12 -0.72)" fill="#74befd"/><path d="M33.78,21.83H22.34L17,32.42H28.54Z" transform="translate(-0.12 -0.72)" fill="#0f92cf"/><path d="M33.53,42.67h11.4l5.51-10.42L44.58,21.5Z" transform="translate(-0.12 -0.72)" fill="#7dc8b0"/><path d="M39.29,32.42,33.74,43,28.31,32.42Z" transform="translate(-0.12 -0.72)" fill="#44adbe"/><path d="M16.57,32.38,5.4,32.4.12,21.82l11.32,0Z" transform="translate(-0.12 -0.72)" fill="#0189ff"/><path d="M22.16,21.81,16.61,32.39,11.18,21.81Z" transform="translate(-0.12 -0.72)" fill="#0189ff"/><path d="M39.07,32.42,33.53,21.83,28.1,32.42Z" transform="translate(-0.12 -0.72)" fill="#1898a4"/><path d="M22.34,21.83l5.82-10.54,5.43,10.54Z" transform="translate(-0.12 -0.72)" fill="#1c9e74"/><path d="M28.06,11.29,33.6,21.83l5.55-10.54Z" transform="translate(-0.12 -0.72)" fill="#1c9e74"/><path d="M33.53,21.85l5.54,10.79,5.55-10.79Z" transform="translate(-0.12 -0.72)" fill="#1c9e74"/><path d="M44.7,21.83,39.15,11.29,33.6,21.83Z" transform="translate(-0.12 -0.72)" fill="#1c9e74"/><path d="M27.72,11.29,22.18.74,16.67,11.28Z" transform="translate(-0.12 -0.72)" fill="#97d07e"/><path d="M11.12.73l5.55,10.55L22.18.73Z" transform="translate(-0.12 -0.72)" fill="#97d07e"/><path d="M16.67,11.27,11.12.72,5.61,11.26Z" transform="translate(-0.12 -0.72)" fill="#97d07e"/><path d="M5.61,11.27l5.55,10.54,5.51-10.54Z" transform="translate(-0.12 -0.72)" fill="#4da9a5"/><path d="M11.18,21.83,5.63,11.29.13,21.83Z" transform="translate(-0.12 -0.72)" fill="#0189ff"/><path d="M22.2,21.83,16.65,11.29,11.14,21.83Z" transform="translate(-0.12 -0.72)" fill="#4da9a5"/><path d="M16.56,11.27l5.55,10.54,5.51-10.54Z" transform="translate(-0.12 -0.72)" fill="#52af30"/></svg>